# xmcd
#
# Track frame offsets:
#	187
#	13737
#	29042
#	52202
#	71155
#	88335
#	104170
#	108237
#	124522
#	141865
#	158760
#	171412
#	194322
#	197637
#	213122
#	227812
#
# Disc length: 3266 seconds
#
# Revision: 3
# Processed by: cddbd v1.5.2PL0 Copyright (c) Steve Scherf et al.
# Submitted via: EZCDAudioConverter 1.0.6.1
#
DISCID=f10cc010
DTITLE=Lynn August - Creole Cruiser
DYEAR=1992
DGENRE=rnb
TTITLE0=Why You Want To Hurt A Man Like Me
TTITLE1=Don't You Know I Love You
TTITLE2='58 Pink Cadillac
TTITLE3=Blind Man
TTITLE4=Bernadette
TTITLE5=That Train Is Gone
TTITLE6=Jure' #1
TTITLE7=Undivided Love
TTITLE8=When I Woke Up This Morning
TTITLE9=Tanten Nana
TTITLE10=Josephine C'est Pas Ma Femme
TTITLE11=Losing Hand
TTITLE12=Jure' #2
TTITLE13=The Creole Song
TTITLE14=Trying My Best Not To Never Do Wrong
TTITLE15=Hippi Ty O
EXTD=
EXTT0=
EXTT1=
EXTT2=
EXTT3=
EXTT4=
EXTT5=
EXTT6=
EXTT7=
EXTT8=
EXTT9=
EXTT10=
EXTT11=
EXTT12=
EXTT13=
EXTT14=
EXTT15=
PLAYORDER=
